<?xml version="1.0" encoding="utf-8"?>
<!-- Generator: Adobe Illustrator 22.1.0, SVG Export Plug-In . SVG Version: 6.00 Build 0)  -->
<!DOCTYPE svg PUBLIC "-//W3C//DTD SVG 1.1//EN" "http://www.w3.org/Graphics/SVG/1.1/DTD/svg11.dtd">
<svg version="1.1" id="Layer_1" xmlns="http://www.w3.org/2000/svg" xmlns:xlink="http://www.w3.org/1999/xlink" x="0px" y="0px"
	 viewBox="0 0 389.6 92.5" style="enable-background:new 0 0 389.6 92.5;" xml:space="preserve">
<g>
	<path d="M146.2,24.6c-0.3,0-0.7-0.1-1.2-0.4c-0.5-0.2-1-0.3-1.3-0.3l-5.8,1.6v29.7c0,1.1,0.3,2.3,0.8,3.6c0.2,0.4,0.1,1.1-0.1,2.1
		c-0.2,1.2-0.6,1.9-1.1,2.2c-0.1,0-0.3,0.1-0.6,0.1c-1.2,0-3-0.2-5.2-0.7c-2.5-0.6-4-1.1-4.4-1.6c-0.5-0.7-0.5-1.6,0.1-2.7
		c0.5-1,0.7-1.7,0.7-2.1v-28l-4,1c-0.2,0-0.5,0.2-0.9,0.5c-0.4,0.3-0.8,0.4-1.1,0.3c-0.9-0.2-2.1-1.3-3.6-3.4c-1.5-2-2.2-3.4-2-4.1
		c0.3-0.9,1.2-1.5,2.7-2c0.4-0.1,0.9-0.1,1.5-0.1c0.6,0.1,1.1,0.1,1.4,0l19.7-5c0.2,0,0.7-0.3,1.6-0.7c0.6-0.3,1.1-0.4,1.6-0.3
		c1.1,0.2,1.8,0.6,2.1,1.2c0.3,0.5,0.5,1.3,0.8,2.5c0.4,1.5,0.6,2.8,0.6,3.8c0,0.8-0.1,1.5-0.3,1.9C148,24.4,147.3,24.6,146.2,24.6z
		"/>
	<path d="M163.1,60.7c0.1,1.4-0.3,2.2-1.4,2.5c-0.2,0-0.5,0.1-0.8,0.1c-1.4,0-3-0.3-5-0.8c-2.1-0.6-3.4-1.2-3.8-1.9
		c-0.2-0.3,0-0.9,0.5-1.8c0.3-0.6,0.5-1.6,0.5-3.1V31.9c-0.5-1.4-0.7-2.4-0.7-2.9c0-0.5,0.7-0.7,2.1-0.7c1.1,0,2.7,0.3,4.7,1
		c2,0.7,3.2,1.3,3.6,1.8c0.1,0.2,0.2,0.3,0.2,0.6c0,0.3-0.2,0.9-0.7,1.7c-0.4,0.8-0.7,1.5-0.7,1.9v22.7c0,0.4,0.2,0.8,0.7,1.4
		C162.8,60,163,60.5,163.1,60.7z M163.2,21.6c0,0.1,0.1,0.2,0.1,0.5c0,0.8-0.2,1.9-0.5,3.2c-0.4,1.4-0.7,2.2-1.1,2.4
		c-0.4,0.2-2-0.3-4.9-1.2c-2.9-1-4.4-1.6-4.6-2.1c-0.1-0.2-0.2-0.5-0.2-0.8c0-1,0.3-2.1,0.8-3.2c0.6-1.3,1.3-2,2-2.1
		c0.9-0.2,2.4,0.2,4.5,1C161.6,20,162.9,20.8,163.2,21.6z"/>
	<path d="M191.3,50.8c0,0.7-0.6,1.7-1.9,2.9c-1,2.2-1.9,3.8-2.7,4.8c-1.7,2.3-3.9,3.6-6.4,4c-0.5,0.1-1,0.1-1.5,0.1
		c-2.1,0-4.7-1-7.8-3.1c-2.7-1.8-4-6-4-12.5c0-4.8,0.7-9.2,2.2-13.1c1.6-4.3,3.6-6.5,5.9-6.6c1.8-0.1,4.1,0.4,6.8,1.5
		c2.7,1.1,4.5,2.3,5.4,3.6c0.8,1.1,1.2,2.5,1.2,4.4c0,0.5,0,1.2-0.1,2.1c-0.1,0.9-0.1,1.6-0.1,2c0.1,1,0.1,1.5,0.1,1.4
		c0,1.2-0.6,1.8-1.8,1.8c-1.4,0-2.6-0.2-3.8-0.6c-1.6-0.6-2.6-1.3-2.9-2.3c-0.1-0.3,0-0.8,0.5-1.4c0.4-0.6,0.6-1,0.5-1.4
		c0.1-0.3,0.1-0.9,0.1-2c0-2.3-0.4-3.4-1.2-3.5c-1.2-0.1-2.2,1.8-3.1,5.5c-0.8,3.3-1.1,6.9-1.1,10.9c0,4.6,0.5,7.1,1.6,7.4
		c0.9,0.2,2-0.8,3.4-2.8c1.2-1.8,1.8-3,1.9-3.6c0.1-0.6,0.2-1.3,0.3-1.9c0.3-1.1,0.9-1.5,2-1.5c0.7,0.1,1.9,0.5,3.6,1.3
		c1.7,0.8,2.6,1.4,2.7,1.8C191.2,50.2,191.3,50.6,191.3,50.8z"/>
	<path d="M235.6,24.6c-0.3,0-0.7-0.1-1.2-0.4c-0.5-0.2-1-0.3-1.3-0.3l-5.8,1.6v29.7c0,1.1,0.3,2.3,0.8,3.6c0.2,0.4,0.1,1.1-0.1,2.1
		c-0.2,1.2-0.6,1.9-1.1,2.2c-0.1,0-0.3,0.1-0.6,0.1c-1.2,0-3-0.2-5.2-0.7c-2.5-0.6-4-1.1-4.4-1.6c-0.5-0.7-0.5-1.6,0.1-2.7
		c0.5-1,0.7-1.7,0.7-2.1v-28l-4,1c-0.2,0-0.5,0.2-0.9,0.5c-0.4,0.3-0.8,0.4-1.1,0.3c-0.9-0.2-2.1-1.3-3.6-3.4c-1.5-2-2.2-3.4-2-4.1
		c0.3-0.9,1.2-1.5,2.7-2c0.4-0.1,0.9-0.1,1.5-0.1c0.6,0.1,1.1,0.1,1.4,0l19.7-5c0.2,0,0.7-0.3,1.6-0.7c0.6-0.3,1.1-0.4,1.6-0.3
		c1.1,0.2,1.8,0.6,2.1,1.2c0.3,0.5,0.5,1.3,0.8,2.5c0.4,1.5,0.6,2.8,0.6,3.8c0,0.8-0.1,1.5-0.3,1.9
		C237.4,24.4,236.8,24.6,235.6,24.6z"/>
	<path d="M259,60.6c0,0.5-0.3,1-0.7,1.4c-0.4,0.4-0.9,0.5-1.4,0.5c-4.7-0.6-7.3-1.5-7.8-2.7c-0.1-0.1-0.1-0.3-0.1-0.5
		c0-0.2,0.1-0.4,0.3-0.6c0.2-0.2,0.3-0.4,0.3-0.6c0-0.2,0.1-0.3,0.2-0.5c0.1-0.3,0.1-1,0.1-2c-0.5,0.3-1.1,1.2-2,2.7
		c-0.9,1.6-1.8,2.8-2.5,3.4c-1.2,1.1-2.6,1.7-4.1,1.7c-0.9,0-1.8-0.4-2.7-1.1c-0.4-0.3-1.2-1.1-2.2-2.2c-1.8-2-2.8-3.1-2.9-3.3
		c-0.8-1.1-1.2-2.1-1.2-3c0-0.3,0-0.6,0.1-0.9c0.7-3.3,2.9-6.5,6.7-9.4c2.7-2.1,6.6-4.4,11.5-6.8c0-1.2-0.3-2-0.9-2.3
		c-0.4-0.2-1.7,0.2-4,1.3c-2.3,1.1-3.8,2-4.8,2.7c-0.3,0.3-0.8,0.7-1.5,1.2c-0.6,0.4-1.2,0.5-1.8,0.3c-0.4-0.1-1.3-0.8-2.7-2
		c-1.4-1.2-2.1-2.1-2.2-2.5c-0.3-1,0-1.8,1-2.4c0,0,0.8-0.3,2.3-0.7c1.4-0.8,2.8-1.5,4.2-2.3c2.9-1.4,5.4-2.1,7.5-2.3
		c0.9,0,1.8,0.4,2.9,1.4c1,0.9,2,1.7,3,2.6c1,0.8,2,1.7,3.1,2.5c1.2,1.1,1.8,2.1,1.8,3.1v21.4C258.8,59.6,259,60.3,259,60.6z
		 M249.9,44.1c-1.8,0.7-3.4,1.8-4.8,3.3c-1,1.2-2,2.4-2.9,3.6c-0.8,0.8-1.5,1.8-2.2,3.1c-0.7,1.3-1,2.2-1,2.8c0,0.3,0.1,0.5,0.3,0.5
		c0.8,0,2.6-1.7,5.3-5.1C247.4,48.7,249.1,46,249.9,44.1z"/>
	<path d="M287.8,50.8c0,0.7-0.6,1.7-1.9,2.9c-1,2.2-1.9,3.8-2.7,4.8c-1.7,2.3-3.9,3.6-6.4,4c-0.5,0.1-1,0.1-1.5,0.1
		c-2.1,0-4.7-1-7.8-3.1c-2.7-1.8-4-6-4-12.5c0-4.8,0.7-9.2,2.2-13.1c1.6-4.3,3.6-6.5,5.9-6.6c1.8-0.1,4.1,0.4,6.8,1.5
		c2.7,1.1,4.5,2.3,5.4,3.6c0.8,1.1,1.2,2.5,1.2,4.4c0,0.5,0,1.2-0.1,2.1c-0.1,0.9-0.1,1.6-0.1,2c0.1,1,0.1,1.5,0.1,1.4
		c0,1.2-0.6,1.8-1.8,1.8c-1.4,0-2.6-0.2-3.8-0.6c-1.6-0.6-2.6-1.3-2.9-2.3c-0.1-0.3,0-0.8,0.5-1.4c0.4-0.6,0.6-1,0.5-1.4
		c0.1-0.3,0.1-0.9,0.1-2c0-2.3-0.4-3.4-1.2-3.5c-1.2-0.1-2.2,1.8-3.1,5.5c-0.8,3.3-1.1,6.9-1.1,10.9c0,4.6,0.5,7.1,1.6,7.4
		c0.9,0.2,2-0.8,3.4-2.8c1.2-1.8,1.8-3,1.9-3.6c0.1-0.6,0.2-1.3,0.3-1.9c0.3-1.1,0.9-1.5,2-1.5c0.7,0.1,1.9,0.5,3.6,1.3
		c1.7,0.8,2.6,1.4,2.7,1.8C287.8,50.2,287.8,50.6,287.8,50.8z"/>
	<path d="M332.2,24.6c-0.3,0-0.7-0.1-1.2-0.4c-0.5-0.2-1-0.3-1.3-0.3l-5.8,1.6v29.7c0,1.1,0.3,2.3,0.8,3.6c0.2,0.4,0.1,1.1-0.1,2.1
		c-0.2,1.2-0.6,1.9-1.1,2.2c-0.1,0-0.3,0.1-0.6,0.1c-1.2,0-3-0.2-5.2-0.7c-2.5-0.6-4-1.1-4.4-1.6c-0.5-0.7-0.5-1.6,0.1-2.7
		c0.5-1,0.7-1.7,0.7-2.1v-28l-4,1c-0.2,0-0.5,0.2-0.9,0.5c-0.4,0.3-0.8,0.4-1.1,0.3c-0.9-0.2-2.1-1.3-3.6-3.4c-1.5-2-2.2-3.4-2-4.1
		c0.3-0.9,1.2-1.5,2.7-2c0.4-0.1,0.9-0.1,1.5-0.1c0.6,0.1,1.1,0.1,1.4,0l19.7-5c0.2,0,0.7-0.3,1.6-0.7c0.6-0.3,1.1-0.4,1.6-0.3
		c1.1,0.2,1.8,0.6,2.1,1.2c0.3,0.5,0.5,1.3,0.8,2.5c0.4,1.5,0.6,2.8,0.6,3.8c0,0.8-0.1,1.5-0.3,1.9C334,24.4,333.3,24.6,332.2,24.6z
		"/>
	<path d="M348.3,29.4c2.1,1,3.7,3,4.8,5.9c1,2.7,1.5,5.9,1.5,9.6c0,5.1-0.9,9.5-2.6,13.2c-1.9,4-4.3,5.8-7.2,5.4
		c-1.1-0.3-2.6-0.6-4.8-1c-1.5-0.2-2.9-0.5-4.2-0.8c-2.1-0.6-3.9-2.4-5.1-5.5c-1.2-2.9-1.8-6.2-1.8-10.1c0-3.9,0.6-7.4,1.8-10.6
		c1.4-3.5,3.3-5.9,5.7-7.3c0.4-0.2,1-0.3,1.7-0.3c0.8,0,2.2,0.2,4.5,0.7C344.1,28.8,346,29,348.3,29.4z M341.9,34.5
		c-1,0-2,1.2-2.8,3.7c-0.9,2.5-1.3,4.8-1.3,7.1c0,2.7,0.3,5.4,1,8c0.7,2.9,1.5,4.4,2.5,4.6c1.2,0.3,2.3-1.1,3.2-4.1
		c0.9-2.9,1.4-6,1.4-9.5c0-1.9-0.2-3.8-0.7-5.7C344.4,35.9,343.4,34.5,341.9,34.5z"/>
	<path d="M382.3,51.9c0.3,0.6-0.4,2.2-2.2,5c-2,3-3.9,5-5.8,6.1c-0.2,0.1-0.6,0.2-1,0.2c-1.5,0-3.4-0.5-5.8-1.4
		c-2.5-0.9-4.2-1.9-5-2.9c-2.2-2.8-3.3-6.7-3.3-11.8c0-4.8,1-8.9,2.9-12.6c2.1-4,4.7-6,7.9-6.1c1.2,0,2.6,0.3,4.2,0.9
		c2,0.8,3.7,1.9,5,3.2c0.3,0.3,0.7,1.4,1,3.1c0.4,1.8,0.6,3.6,0.6,5.3c0,2.6-0.4,4.3-1.2,5.3c-3.9,1.2-7.8,1.9-11.9,2.1
		c-0.1,1.8,0.2,3.8,0.7,5.8c0.5,2,1.1,3.1,1.6,3.1c0.8,0,1.7-0.6,2.7-1.9c0.9-1.1,1.5-2,1.8-2.8c0.3-1.1,0.6-2.3,1.1-3.5
		c0.6-0.1,1.8,0.2,3.6,0.9S382,51.4,382.3,51.9z M372.3,34.6c-0.6-0.1-1.5,0.9-2.7,3.1c-1.2,2.1-1.8,4.1-2,6.1
		c1.7-0.1,3.1-0.5,4.1-1.2c0.6-0.5,0.9-2.3,0.9-5.7C372.5,35.5,372.5,34.7,372.3,34.6z"/>
</g>
<g>
	<g>
		<path d="M44.1,40.7c12.8-3.7,25.1-7,38.1-7.8c0.6,2.8,0,4.4-2.9,5.2c-10.8,2.9-21.5,6-32.3,9.1c-0.4,0.1-0.7,0.3-1.5,0.5
			c1,5.1,1.9,10.1,3,15.1c1.6,7.4,3.2,14.8,5.1,22.2c1,3.7-0.3,5.7-3.9,7.5c-6.3-13.4-8-28-11.7-43c-12.7,4.6-25.4,9.1-38,13.7
			c-0.9-3.8-0.4-5.4,2.9-6.8c10.5-4.3,21.1-8.5,31.6-12.7c0.8-0.3,1.6-0.5,2.7-0.9c-0.4-3.7-1.1-7.4-1.1-11.1
			c0-9.5,0.2-19.1,0.4-28.6C36.6,0,39.3,0.5,41.4,0c1.9,6.7,1.3,13.5,1.5,20.2C43.1,26.9,43.7,33.6,44.1,40.7z"/>
	</g>
	<g>
		<path d="M50.4,16.9c0.8-2.7,1.3-5.5,2.5-7.9c2.8-5.4,8.9-6.4,13.6-2.5c4.5,3.8,6,12,3.1,17.1c-2.3,4-6.6,6.2-10.7,5.5
			c-4.1-0.8-7.2-4.5-7.8-9.1C51,19,50.9,18,50.8,17C50.7,17,50.5,16.9,50.4,16.9z M64.4,16.6c-0.1-0.6,0-1.6-0.5-2.2
			c-1-1.3-2.2-2.4-3.3-3.5c-1,1.1-2,2.1-2.9,3.2c-0.4,0.6-0.5,1.4-0.7,2.2c-0.5,2.8,1.3,6.1,3.5,6.1c3,0,3.3-2.5,3.7-4.6
			C64.4,17.5,64.4,17.2,64.4,16.6z"/>
	</g>
	<g>
		<path d="M34.8,74.6c0,8.2-6.5,13.7-13.4,11.2c-4.7-1.7-8-7.2-7.6-13c0.4-6.1,3.5-10.2,8.4-11.3c3-0.7,5.6,0.2,7.9,2.1
			C33,66.3,34.8,70.4,34.8,74.6z M19.3,73.4c0.3,1.2,0.4,2.2,0.7,3.2c0.8,2.3,2.4,3.6,4.9,3.3c2.5-0.3,3.5-2.2,3.4-4.4
			c-0.1-2-0.5-4.1-1.4-5.8c-1.6-3-5.1-2.7-6.6,0.4C19.8,71.1,19.6,72.3,19.3,73.4z"/>
	</g>
	<g>
		<path d="M15.1,37c-0.7,1.2-1.4,2.3-2,3.3c-2.3,3.6-2.7,3.7-5.9,1c-0.6-0.5-0.9-2-0.7-2.9c0.2-1.2,1-2.3,1.6-3.4
			c0.6-1.1,1.3-2.2,2-3.4c-1.1-1.5-2.3-3-3.5-4.5c-1.8-2.2-2-4.2,1.9-5.8c1.2,1.7,2.6,3.7,4.2,5.8c2.3-2.4,4-4.2,5.7-6
			c4.7,2.3,4.7,2.3,0.7,10.4c2,1.8,4,3.6,5.9,5.4C21.9,40.9,21.9,40.9,15.1,37z"/>
	</g>
	<g>
		<path d="M70.5,72.1c-1.1,1.6-2.1,3.1-3.1,4.5c-5.2-2.2-5.4-2.4-3.3-7c0.9-2.2,0.8-3.7-0.9-5.3c-1.2-1.1-2.1-2.5-3.1-3.8
			c-0.5-0.6-0.8-1.3-1.4-2.4c1-0.8,2.1-1.7,3.4-2.7c0.9,0.7,1.9,1.5,2.9,2.3c1,0.8,1.9,1.6,3.1,2.6c1.3-2.6,2.4-5,3.6-7.3
			c3.8,1.5,4,1.9,3.2,5.4c0,0.1-0.1,0.2-0.1,0.3c-1.8,4-1.3,7.1,2.5,9.9c2.7,2,2.4,2.6-1.4,6.7C74.1,74.2,72.4,73.2,70.5,72.1z"/>
	</g>
</g>
</svg>
